<svg id="Calque_1" data-name="Calque 1" xmlns="http://www.w3.org/2000/svg" viewBox="0 0 640.83 640.83"><defs><style>.cls-1{fill:#fff;}</style></defs><title>left</title><path class="cls-1" d="M320.41,640.83C143.74,640.83,0,497.09,0,320.41S143.74,0,320.41,0,640.83,143.74,640.83,320.41,497.09,640.83,320.41,640.83Zm0-621.2c-165.85,0-300.78,134.93-300.78,300.78S154.56,621.2,320.41,621.2,621.2,486.27,621.2,320.41,486.27,19.63,320.41,19.63Z"/><path class="cls-1" d="M346,405.94a5.91,5.91,0,0,1-3.81-1.45l-92.08-77.27a9.38,9.38,0,0,1,0-13.62l92.08-77.26c3.07-2.58,7.28-1.63,9.39,2.13s1.33,8.9-1.75,11.49l-84,70.45,84,70.46c3.08,2.58,3.86,7.72,1.75,11.48A6.48,6.48,0,0,1,346,405.94Z"/></svg>