<svg id="Calque_1" data-name="Calque 1" xmlns="http://www.w3.org/2000/svg" viewBox="0 0 640.83 640.83"><defs><style>.cls-1{fill:#fff;}</style></defs><title>right</title><path class="cls-1" d="M0,320.41C0,143.74,143.74,0,320.42,0S640.83,143.74,640.83,320.41,497.09,640.83,320.42,640.83,0,497.09,0,320.41Zm19.63,0c0,165.86,134.93,300.79,300.79,300.79S621.2,486.27,621.2,320.41,486.27,19.63,320.42,19.63,19.63,154.56,19.63,320.41Z" transform="translate(0)"/><path class="cls-1" d="M294.87,405.94a5.91,5.91,0,0,0,3.82-1.45l92.08-77.27a9.38,9.38,0,0,0,0-13.62l-92.08-77.26c-3.08-2.58-7.28-1.63-9.39,2.13s-1.33,8.9,1.75,11.49l84,70.45-84,70.46c-3.08,2.58-3.86,7.72-1.75,11.48A6.48,6.48,0,0,0,294.87,405.94Z" transform="translate(0)"/></svg>